<mxfile host="drawio-plugin" modified="2021-09-25T20:34:35.767Z" agent="5.0 (Macintosh; Intel Mac OS X 11_6_0) AppleWebKit/537.36 (KHTML, like Gecko) Chrome/89.0.4389.114 Safari/537.36" etag="iIdPECzTtgEebDBE5jU0" version="14.7.4" type="embed"><diagram id="6sMQ5dmcHRpXuZBFNezs" name="Page-1"><mxGraphModel dx="695" dy="516" grid="1" gridSize="10" guides="1" tooltips="1" connect="1" arrows="1" fold="1" page="1" pageScale="1" pageWidth="1169" pageHeight="827" background="#F1FAEE" math="0" shadow="0"><root><mxCell id="0"/><mxCell id="1" parent="0"/><mxCell id="Nk5pLMNR2XuMKu6LX4S3-46" value="Factory LAN" style="swimlane;childLayout=stackLayout;horizontal=1;startSize=30;horizontalStack=0;rounded=1;fontSize=14;fontStyle=0;strokeWidth=2;resizeParent=0;resizeLast=1;shadow=0;dashed=0;align=center;fillColor=#A8DADC;strokeColor=#457B9D;fontColor=#1D3557;" parent="1" vertex="1"><mxGeometry x="40" y="232.5" width="160" height="120" as="geometry"/></mxCell><mxCell id="Nk5pLMNR2XuMKu6LX4S3-47" value="+Attribute1&#10;+Attribute2&#10;+Attribute3" style="align=left;strokeColor=none;fillColor=none;spacingLeft=4;fontSize=12;verticalAlign=top;resizable=0;rotatable=0;part=1;fontColor=#1D3557;" parent="Nk5pLMNR2XuMKu6LX4S3-46" vertex="1"><mxGeometry y="30" width="160" height="90" as="geometry"/></mxCell><mxCell id="Nk5pLMNR2XuMKu6LX4S3-44" value="Backplane Slot" style="swimlane;childLayout=stackLayout;horizontal=1;startSize=30;horizontalStack=0;rounded=1;fontSize=14;fontStyle=0;strokeWidth=2;resizeParent=0;resizeLast=1;shadow=0;dashed=0;align=center;fillColor=#A8DADC;strokeColor=#457B9D;fontColor=#1D3557;" parent="1" vertex="1"><mxGeometry x="280" y="320" width="160" height="120" as="geometry"/></mxCell><mxCell id="Nk5pLMNR2XuMKu6LX4S3-45" value="+Attribute1&#10;+Attribute2&#10;+Attribute3" style="align=left;strokeColor=none;fillColor=none;spacingLeft=4;fontSize=12;verticalAlign=top;resizable=0;rotatable=0;part=1;fontColor=#1D3557;" parent="Nk5pLMNR2XuMKu6LX4S3-44" vertex="1"><mxGeometry y="30" width="160" height="90" as="geometry"/></mxCell><mxCell id="Nk5pLMNR2XuMKu6LX4S3-62" value="" style="edgeStyle=entityRelationEdgeStyle;fontSize=12;html=1;endArrow=ERzeroToMany;endFill=0;entryX=0;entryY=0.25;entryDx=0;entryDy=0;startArrow=ERmandOne;startFill=0;strokeColor=#457B9D;fontColor=#1D3557;labelBackgroundColor=#F1FAEE;" parent="1" source="Nk5pLMNR2XuMKu6LX4S3-47" target="Nk5pLMNR2XuMKu6LX4S3-45" edge="1"><mxGeometry width="100" height="100" relative="1" as="geometry"><mxPoint x="210" y="292.5" as="sourcePoint"/><mxPoint x="350" y="302.5" as="targetPoint"/></mxGeometry></mxCell><mxCell id="Nk5pLMNR2XuMKu6LX4S3-63" value="Rack" style="swimlane;childLayout=stackLayout;horizontal=1;startSize=30;horizontalStack=0;rounded=1;fontSize=14;fontStyle=0;strokeWidth=2;resizeParent=0;resizeLast=1;shadow=0;dashed=0;align=center;fillColor=#A8DADC;strokeColor=#457B9D;fontColor=#1D3557;" parent="1" vertex="1"><mxGeometry x="40" y="400" width="160" height="120" as="geometry"/></mxCell><mxCell id="Nk5pLMNR2XuMKu6LX4S3-64" value="+Attribute1&#10;+Attribute2&#10;+Attribute3" style="align=left;strokeColor=none;fillColor=none;spacingLeft=4;fontSize=12;verticalAlign=top;resizable=0;rotatable=0;part=1;fontColor=#1D3557;" parent="Nk5pLMNR2XuMKu6LX4S3-63" vertex="1"><mxGeometry y="30" width="160" height="90" as="geometry"/></mxCell><mxCell id="Nk5pLMNR2XuMKu6LX4S3-65" value="" style="edgeStyle=entityRelationEdgeStyle;fontSize=12;html=1;endArrow=ERzeroToMany;endFill=1;entryX=0;entryY=0.667;entryDx=0;entryDy=0;entryPerimeter=0;exitX=1;exitY=0.5;exitDx=0;exitDy=0;startArrow=ERmandOne;startFill=0;strokeColor=#457B9D;fontColor=#1D3557;labelBackgroundColor=#F1FAEE;" parent="1" source="Nk5pLMNR2XuMKu6LX4S3-64" target="Nk5pLMNR2XuMKu6LX4S3-45" edge="1"><mxGeometry width="100" height="100" relative="1" as="geometry"><mxPoint x="200" y="492.5" as="sourcePoint"/><mxPoint x="300" y="332.5" as="targetPoint"/></mxGeometry></mxCell><mxCell id="Nk5pLMNR2XuMKu6LX4S3-68" value="" style="edgeStyle=entityRelationEdgeStyle;fontSize=12;html=1;endArrow=ERzeroToMany;endFill=1;entryX=0;entryY=0.596;entryDx=0;entryDy=0;exitX=1;exitY=0.556;exitDx=0;exitDy=0;exitPerimeter=0;strokeColor=#457B9D;fontColor=#1D3557;entryPerimeter=0;labelBackgroundColor=#F1FAEE;" parent="1" source="Nk5pLMNR2XuMKu6LX4S3-45" target="lPTxgjq9LakvXI0zyunq-26" edge="1"><mxGeometry width="100" height="100" relative="1" as="geometry"><mxPoint x="480" y="390" as="sourcePoint"/><mxPoint x="510" y="325" as="targetPoint"/></mxGeometry></mxCell><mxCell id="Nk5pLMNR2XuMKu6LX4S3-69" value="Board" style="swimlane;childLayout=stackLayout;horizontal=1;startSize=30;horizontalStack=0;rounded=1;fontSize=14;fontStyle=0;strokeWidth=2;resizeParent=0;resizeLast=1;shadow=0;dashed=0;align=center;fillColor=#A8DADC;strokeColor=#457B9D;fontColor=#1D3557;" parent="1" vertex="1"><mxGeometry x="520" y="442.5" width="160" height="115" as="geometry"/></mxCell><mxCell id="Nk5pLMNR2XuMKu6LX4S3-70" value="+Attribute1&#10;+Attribute2&#10;+Attribute3" style="align=left;strokeColor=none;fillColor=none;spacingLeft=4;fontSize=12;verticalAlign=top;resizable=0;rotatable=0;part=1;fontColor=#1D3557;" parent="Nk5pLMNR2XuMKu6LX4S3-69" vertex="1"><mxGeometry y="30" width="160" height="85" as="geometry"/></mxCell><mxCell id="Nk5pLMNR2XuMKu6LX4S3-75" value="" style="edgeStyle=entityRelationEdgeStyle;orthogonalLoop=1;jettySize=auto;html=1;fontSize=12;startArrow=ERmandOne;endArrow=ERzeroToOne;endFill=0;strokeColor=#457B9D;fontColor=#1D3557;exitX=1;exitY=0.5;exitDx=0;exitDy=0;labelBackgroundColor=#F1FAEE;" parent="1" source="Nk5pLMNR2XuMKu6LX4S3-70" target="Nk5pLMNR2XuMKu6LX4S3-72" edge="1"><mxGeometry relative="1" as="geometry"><mxPoint x="950" y="377.5" as="sourcePoint"/></mxGeometry></mxCell><mxCell id="Nk5pLMNR2XuMKu6LX4S3-71" value="Module" style="swimlane;childLayout=stackLayout;horizontal=1;startSize=30;horizontalStack=0;rounded=1;fontSize=14;fontStyle=0;strokeWidth=2;resizeParent=0;resizeLast=1;shadow=0;dashed=0;align=center;fillColor=#A8DADC;strokeColor=#457B9D;fontColor=#1D3557;" parent="1" vertex="1"><mxGeometry x="760" y="440" width="160" height="120" as="geometry"/></mxCell><mxCell id="Nk5pLMNR2XuMKu6LX4S3-72" value="+Attribute1&#10;+Attribute2&#10;+Attribute3" style="align=left;strokeColor=none;fillColor=none;spacingLeft=4;fontSize=12;verticalAlign=top;resizable=0;rotatable=0;part=1;fontColor=#1D3557;" parent="Nk5pLMNR2XuMKu6LX4S3-71" vertex="1"><mxGeometry y="30" width="160" height="90" as="geometry"/></mxCell><mxCell id="Nk5pLMNR2XuMKu6LX4S3-74" value="" style="edgeStyle=orthogonalEdgeStyle;fontSize=12;html=1;endArrow=ERmandOne;endFill=0;exitX=0.5;exitY=1;exitDx=0;exitDy=0;entryX=0.5;entryY=0;entryDx=0;entryDy=0;startArrow=ERmany;startFill=0;strokeColor=#457B9D;fontColor=#1D3557;jumpStyle=none;shadow=0;curved=1;labelBackgroundColor=#F1FAEE;" parent="1" source="lPTxgjq9LakvXI0zyunq-26" target="Nk5pLMNR2XuMKu6LX4S3-69" edge="1"><mxGeometry width="100" height="100" relative="1" as="geometry"><mxPoint x="670" y="325" as="sourcePoint"/><mxPoint x="300" y="610" as="targetPoint"/></mxGeometry></mxCell><mxCell id="Nk5pLMNR2XuMKu6LX4S3-76" value="Power Control" style="swimlane;childLayout=stackLayout;horizontal=1;startSize=30;horizontalStack=0;rounded=1;fontSize=14;fontStyle=0;strokeWidth=2;resizeParent=0;resizeLast=1;shadow=0;dashed=0;align=center;fillColor=#A8DADC;strokeColor=#457B9D;fontColor=#1D3557;" parent="1" vertex="1"><mxGeometry x="240" y="557.5" width="160" height="120" as="geometry"/></mxCell><mxCell id="Nk5pLMNR2XuMKu6LX4S3-77" value="+Attribute1&#10;+Attribute2&#10;+Attribute3" style="align=left;strokeColor=none;fillColor=none;spacingLeft=4;fontSize=12;verticalAlign=top;resizable=0;rotatable=0;part=1;fontColor=#1D3557;" parent="Nk5pLMNR2XuMKu6LX4S3-76" vertex="1"><mxGeometry y="30" width="160" height="90" as="geometry"/></mxCell><mxCell id="Nk5pLMNR2XuMKu6LX4S3-78" value="" style="edgeStyle=entityRelationEdgeStyle;orthogonalLoop=1;jettySize=auto;html=1;fontSize=12;startArrow=ERzeroToOne;startFill=0;endArrow=ERzeroToOne;endFill=0;entryX=0;entryY=0.75;entryDx=0;entryDy=0;strokeColor=#457B9D;fontColor=#1D3557;labelBackgroundColor=#F1FAEE;" parent="1" source="Nk5pLMNR2XuMKu6LX4S3-77" target="Nk5pLMNR2XuMKu6LX4S3-70" edge="1"><mxGeometry relative="1" as="geometry"/></mxCell><mxCell id="OhX7KAYPV6jULCx1rX-J-2" value="Board Type" style="swimlane;childLayout=stackLayout;horizontal=1;startSize=30;horizontalStack=0;rounded=1;fontSize=14;fontStyle=0;strokeWidth=2;resizeParent=0;resizeLast=1;shadow=0;dashed=0;align=center;fillColor=#A8DADC;strokeColor=#457B9D;fontColor=#1D3557;" parent="1" vertex="1"><mxGeometry x="520" y="640" width="160" height="120" as="geometry"/></mxCell><mxCell id="OhX7KAYPV6jULCx1rX-J-3" value="+Attribute1&#10;+Attribute2&#10;+Attribute3" style="align=left;strokeColor=none;fillColor=none;spacingLeft=4;fontSize=12;verticalAlign=top;resizable=0;rotatable=0;part=1;fontColor=#1D3557;" parent="OhX7KAYPV6jULCx1rX-J-2" vertex="1"><mxGeometry y="30" width="160" height="90" as="geometry"/></mxCell><mxCell id="OhX7KAYPV6jULCx1rX-J-4" value="Board type devices" style="swimlane;childLayout=stackLayout;horizontal=1;startSize=30;horizontalStack=0;rounded=1;fontSize=14;fontStyle=0;strokeWidth=2;resizeParent=0;resizeLast=1;shadow=0;dashed=0;align=center;fillColor=#A8DADC;strokeColor=#457B9D;fontColor=#1D3557;" parent="1" vertex="1"><mxGeometry x="760" y="640" width="160" height="120" as="geometry"/></mxCell><mxCell id="OhX7KAYPV6jULCx1rX-J-5" value="+Attribute1&#10;+Attribute2&#10;+Attribute3" style="align=left;strokeColor=none;fillColor=none;spacingLeft=4;fontSize=12;verticalAlign=top;resizable=0;rotatable=0;part=1;fontColor=#1D3557;" parent="OhX7KAYPV6jULCx1rX-J-4" vertex="1"><mxGeometry y="30" width="160" height="90" as="geometry"/></mxCell><mxCell id="lPTxgjq9LakvXI0zyunq-2" style="edgeStyle=orthogonalEdgeStyle;rounded=1;orthogonalLoop=1;jettySize=auto;html=1;exitX=0.5;exitY=1;exitDx=0;exitDy=0;entryX=0.5;entryY=0;entryDx=0;entryDy=0;endArrow=ERmandOne;endFill=0;startArrow=ERmandOne;startFill=0;strokeColor=#457B9D;fontColor=#1D3557;labelBackgroundColor=#F1FAEE;" parent="1" source="Nk5pLMNR2XuMKu6LX4S3-70" target="OhX7KAYPV6jULCx1rX-J-2" edge="1"><mxGeometry relative="1" as="geometry"/></mxCell><mxCell id="lPTxgjq9LakvXI0zyunq-3" style="edgeStyle=orthogonalEdgeStyle;rounded=1;orthogonalLoop=1;jettySize=auto;html=1;exitX=1;exitY=0.5;exitDx=0;exitDy=0;startArrow=ERmandOne;startFill=0;endArrow=ERoneToMany;endFill=0;strokeColor=#457B9D;fontColor=#1D3557;labelBackgroundColor=#F1FAEE;" parent="1" source="OhX7KAYPV6jULCx1rX-J-3" target="OhX7KAYPV6jULCx1rX-J-5" edge="1"><mxGeometry relative="1" as="geometry"/></mxCell><mxCell id="lPTxgjq9LakvXI0zyunq-6" value="IP" style="swimlane;childLayout=stackLayout;horizontal=1;startSize=30;horizontalStack=0;rounded=1;fontSize=14;fontStyle=0;strokeWidth=2;resizeParent=0;resizeLast=1;shadow=0;dashed=0;align=center;fillColor=#A8DADC;strokeColor=#457B9D;fontColor=#1D3557;" parent="1" vertex="1"><mxGeometry x="280" y="180" width="160" height="100" as="geometry"/></mxCell><mxCell id="lPTxgjq9LakvXI0zyunq-7" value="+Attribute1&#10;+Attribute2&#10;+Attribute3" style="align=left;strokeColor=none;fillColor=none;spacingLeft=4;fontSize=12;verticalAlign=top;resizable=0;rotatable=0;part=1;fontColor=#1D3557;" parent="lPTxgjq9LakvXI0zyunq-6" vertex="1"><mxGeometry y="30" width="160" height="70" as="geometry"/></mxCell><mxCell id="lPTxgjq9LakvXI0zyunq-9" value="UART" style="swimlane;childLayout=stackLayout;horizontal=1;startSize=30;horizontalStack=0;rounded=1;fontSize=14;fontStyle=0;strokeWidth=2;resizeParent=0;resizeLast=1;shadow=0;dashed=0;align=center;fillColor=#A8DADC;strokeColor=#457B9D;fontColor=#1D3557;" parent="1" vertex="1"><mxGeometry x="280" y="40" width="160" height="110" as="geometry"/></mxCell><mxCell id="lPTxgjq9LakvXI0zyunq-10" value="+Attribute1&#10;+Attribute2&#10;+Attribute3" style="align=left;strokeColor=none;fillColor=none;spacingLeft=4;fontSize=12;verticalAlign=top;resizable=0;rotatable=0;part=1;fontColor=#1D3557;" parent="lPTxgjq9LakvXI0zyunq-9" vertex="1"><mxGeometry y="30" width="160" height="80" as="geometry"/></mxCell><mxCell id="lPTxgjq9LakvXI0zyunq-11" style="edgeStyle=orthogonalEdgeStyle;rounded=1;orthogonalLoop=1;jettySize=auto;html=1;exitX=1;exitY=0.25;exitDx=0;exitDy=0;entryX=0.25;entryY=0;entryDx=0;entryDy=0;startArrow=ERzeroToOne;startFill=0;endArrow=ERzeroToOne;endFill=0;strokeColor=#457B9D;fontColor=#1D3557;labelBackgroundColor=#F1FAEE;" parent="1" source="lPTxgjq9LakvXI0zyunq-10" target="lPTxgjq9LakvXI0zyunq-25" edge="1"><mxGeometry relative="1" as="geometry"><mxPoint x="550" y="240" as="targetPoint"/></mxGeometry></mxCell><mxCell id="lPTxgjq9LakvXI0zyunq-14" value="" style="edgeStyle=entityRelationEdgeStyle;fontSize=12;html=1;endArrow=ERmandOne;startArrow=ERzeroToMany;fontColor=#1D3557;strokeColor=#457B9D;fillColor=#A8DADC;exitX=1;exitY=0.5;exitDx=0;exitDy=0;entryX=0;entryY=0.25;entryDx=0;entryDy=0;endFill=0;startFill=1;labelBackgroundColor=#F1FAEE;" parent="1" source="lPTxgjq9LakvXI0zyunq-7" target="lPTxgjq9LakvXI0zyunq-26" edge="1"><mxGeometry width="100" height="100" relative="1" as="geometry"><mxPoint x="700" y="170" as="sourcePoint"/><mxPoint x="510" y="297.5" as="targetPoint"/></mxGeometry></mxCell><mxCell id="lPTxgjq9LakvXI0zyunq-17" value="UART server" style="swimlane;childLayout=stackLayout;horizontal=1;startSize=30;horizontalStack=0;rounded=1;fontSize=14;fontStyle=0;strokeWidth=2;resizeParent=0;resizeLast=1;shadow=0;dashed=0;align=center;sketch=0;fontColor=#1D3557;fillColor=#A8DADC;strokeColor=#457B9D;" parent="1" vertex="1"><mxGeometry x="40" y="40" width="160" height="110" as="geometry"/></mxCell><mxCell id="lPTxgjq9LakvXI0zyunq-18" value="+Attribute1&#10;+Attribute2&#10;+Attribute3" style="align=left;strokeColor=none;fillColor=none;spacingLeft=4;fontSize=12;verticalAlign=top;resizable=0;rotatable=0;part=1;fontColor=#1D3557;" parent="lPTxgjq9LakvXI0zyunq-17" vertex="1"><mxGeometry y="30" width="160" height="80" as="geometry"/></mxCell><mxCell id="lPTxgjq9LakvXI0zyunq-19" style="edgeStyle=orthogonalEdgeStyle;curved=0;rounded=1;sketch=0;orthogonalLoop=1;jettySize=auto;html=1;exitX=1;exitY=0.5;exitDx=0;exitDy=0;fontColor=#1D3557;startArrow=ERzeroToOne;startFill=0;endArrow=ERzeroToMany;endFill=0;strokeColor=#457B9D;fillColor=#A8DADC;labelBackgroundColor=#F1FAEE;" parent="1" source="lPTxgjq9LakvXI0zyunq-18" target="lPTxgjq9LakvXI0zyunq-10" edge="1"><mxGeometry relative="1" as="geometry"/></mxCell><mxCell id="lPTxgjq9LakvXI0zyunq-25" value="Device" style="swimlane;childLayout=stackLayout;horizontal=1;startSize=30;horizontalStack=0;rounded=1;fontSize=14;fontStyle=0;strokeWidth=2;resizeParent=0;resizeLast=1;shadow=0;dashed=0;align=center;sketch=0;fontColor=#1D3557;fillColor=#A8DADC;strokeColor=#457B9D;" parent="1" vertex="1"><mxGeometry x="520" y="240" width="160" height="120" as="geometry"/></mxCell><mxCell id="lPTxgjq9LakvXI0zyunq-26" value="+Attribute1&#10;+Attribute2&#10;+Attribute3" style="align=left;strokeColor=none;fillColor=none;spacingLeft=4;fontSize=12;verticalAlign=top;resizable=0;rotatable=0;part=1;fontColor=#1D3557;" parent="lPTxgjq9LakvXI0zyunq-25" vertex="1"><mxGeometry y="30" width="160" height="90" as="geometry"/></mxCell></root></mxGraphModel></diagram></mxfile>